{
  "accessors": [
    {
      "bufferView": 2,
      "componentType": 5126,
      "count": 1371,
      "max": [
        0.074630998075008392,
        0.10062400251626968,
        0.10294300317764282
      ],
      "min": [
        -0.074630998075008392,
        -0.002899999963119626,
        -0.083580002188682556
      ],
      "type": "VEC3"
    },
    {
      "bufferView": 2,
      "byteOffset": 16452,
      "componentType": 5126,
      "count": 1371,
      "max": [
        0.99062436819076538,
        0.21483910083770752,
        0.99903702735900879
      ],
      "min": [
        -0.99062436819076538,
        -0.99917000532150269,
        -0.99317997694015503
      ],
      "type": "VEC3"
    },
    {
      "bufferView": 3,
      "componentType": 5126,
      "count": 1371,
      "max": [
        1,
        0.99171072244644165,
        0.78189438581466675,
        1
      ],
      "min": [
        -0.68846452236175537,
        -0.99171066284179688,
        -0.788460373878479,
        -1
      ],
      "type": "VEC4"
    },
    {
      "bufferView": 1,
      "componentType": 5126,
      "count": 1371,
      "max": [
        0.93692600727081299,
        0.90890997648239136
      ],
      "min": [
        0.063074000179767609,
        0.093656003475189209
      ],
      "type": "VEC2"
    },
    {
      "bufferView": 0,
      "componentType": 5125,
      "count": 7554,
      "max": [
        1370
      ],
      "min": [
        0
      ],
      "type": "SCALAR"
    }
  ],
  "asset": {
    "extras": {
      "author": "cardio_man (https://sketchfab.com/cardio_man)",
      "license": "CC-BY-4.0 (http://creativecommons.org/licenses/by/4.0/)",
      "source": "https://sketchfab.com/3d-models/face-mesh-44f05170b0ca4bad9fbcb97d66442c53",
      "title": "Face Mesh"
    },
    "generator": "Sketchfab-6.9.0",
    "version": "2.0"
  },
  "bufferViews": [
    {
      "buffer": 0,
      "byteLength": 30216,
      "byteOffset": 0,
      "name": "floatBufferViews",
      "target": 34963
    },
    {
      "buffer": 0,
      "byteLength": 10968,
      "byteOffset": 30216,
      "byteStride": 8,
      "name": "floatBufferViews",
      "target": 34962
    },
    {
      "buffer": 0,
      "byteLength": 32904,
      "byteOffset": 41184,
      "byteStride": 12,
      "name": "floatBufferViews",
      "target": 34962
    },
    {
      "buffer": 0,
      "byteLength": 21936,
      "byteOffset": 74088,
      "byteStride": 16,
      "name": "floatBufferViews",
      "target": 34962
    }
  ],
  "buffers": [
    {
      "byteLength": 96024,
      "uri": "scene.bin"
    }
  ],
  "materials": [
    {
      "doubleSided": true,
      "name": "material_0",
      "pbrMetallicRoughness": {
        "baseColorFactor": [
          1,
          1,
          1,
          1
        ],
        "metallicFactor": 0,
        "roughnessFactor": 0.59999999999999998
      }
    }
  ],
  "meshes": [
    {
      "primitives": [
        {
          "attributes": {
            "NORMAL": 1,
            "POSITION": 0,
            "TANGENT": 2,
            "TEXCOORD_0": 3
          },
          "indices": 4,
          "material": 0,
          "mode": 4
        }
      ]
    }
  ],
  "nodes": [
    {
      "children": [
        1
      ],
      "name": "RootNode (gltf orientation matrix)",
      "rotation": [
        -0.70710678118654746,
        -0,
        -0,
        0.70710678118654757
      ]
    },
    {
      "children": [
        2
      ],
      "name": "RootNode (model correction matrix)"
    },
    {
      "children": [
        3
      ],
      "name": "d7928e69481448269a9e97a7e3ea97e0.obj.cleaner.materialmerger.gles"
    },
    {
      "mesh": 0,
      "name": ""
    }
  ],
  "scene": 0,
  "scenes": [
    {
      "name": "OSG_Scene",
      "nodes": [
        0
      ]
    }
  ]
}

